<?xml version="1.0" standalone="no"?> <!DOCTYPE svg PUBLIC "-//W3C//DTD SVG 1.0//EN" "http://www.w3.org/TR/2001/REC-SVG-20010904/DTD/svg10.dtd" > <svg xmlns="http://www.w3.org/2000/svg" width="100%" height="100%">
<defs >
<font id="fp-25441" horiz-adv-x="1245" ><font-face
    font-family="Erica Type"
    units-per-em="2048"
    panose-1="2 0 5 6 0 0 0 2 0 3"
    ascent="1831"
    descent="-465"
    alphabetic="0" />
<missing-glyph horiz-adv-x="2048" />
<glyph unicode=" " glyph-name="space" horiz-adv-x="1233" />
<glyph unicode="!" glyph-name="exclam" horiz-adv-x="1233" d="M724 1183L681 456Q676 394 623 394Q588 394 571 408T551 456L509 1183V1192Q509 1212 516 1231T536 1264T570 1287T616 1296Q642 1296 662 1288T696 1265T717 1232T724 1192V1183ZM616 249Q642
249 665 239T705 212T732 172T742 123Q742 99 733 77T707 37T667 10T616 -1Q589 -1 567 9T527 36T501 76T491 123Q491 176 528 212L533 217Q568 249 616 249Z" />
<glyph unicode="&quot;" glyph-name="quotedbl" horiz-adv-x="1233" d="M517 1194L474 687Q468 626 414 626Q347 626 344 688L301 1194V1202Q301 1240 329 1268T409 1296Q461 1296 489 1268T517 1202V1194ZM932 1194L888 687Q882 626 828 626Q763 626 758 688L716
1194Q715 1198 715 1206Q715 1224 722 1240T743 1268T777 1288T823 1296Q875 1296 903 1268T932 1202V1194Z" />
<glyph unicode="#" glyph-name="numbersign" horiz-adv-x="1233" d="M235 260Q170 260 170 326Q170 391 235 391H371L400 589H235Q170 589 170 654Q170 719 235 719H419L441 871Q450 936 515 936Q580 936 571 871L549 719H747L769 871Q778 936 843 936Q909 936
900 871L878 719H998Q1063 719 1063 654Q1063 589 998 589H859L830 391H998Q1063 391 1063 326Q1063 260 998 260H811L789 108Q780 43 714 43Q649 43 658 108L680 260H482L460 108Q451 43 386 43Q321 43 330 108L352 260H235ZM501 391H699L728 589H530L501 391Z"
/>
<glyph unicode="$" glyph-name="dollar" horiz-adv-x="1233" d="M924 1229Q943 1267 975 1267Q991 1267 1004 1262T1028 1247T1043 1228T1049 1207Q1049 1190 1040 1171Q1025 1141 1017 1107T1010 1034Q1010 1003 1015 965T1032 879Q1033 874 1033 869T1034 859Q1034
833 1016 817T961 800Q946 800 937 804T921 816T911 837T901 866Q852 1067 709 1118V733Q775 718 830 692Q908 657 963 606T1047 490T1077 350Q1077 270 1048 200T967 78T842 -4Q779 -30 707 -33Q698 -78 644 -78Q584 -78 578 -25Q521 -14 471 7Q378 49 318 134Q313
104 307 71T290 11T265 -35T228 -53Q193 -53 175 -35T156 7Q156 21 160 34Q180 91 189 157T199 305Q199 335 198 368T195 437H196V445Q196 474 214 490T269 507Q315 507 324 454Q343 361 373 294T446 183T548 118Q563 113 578 109V625Q516 638 464 657Q389 684
336 726T254 827T225 962Q225 1030 251 1086T326 1181T445 1243Q508 1263 586 1265Q602 1292 644 1292Q693 1292 705 1254Q735 1248 764 1237Q838 1210 895 1153Q902 1185 924 1229ZM790 115Q838 134 872 167T926 246T946 350Q946 400 925 443T863 521T765 579Q738
590 709 599V97Q752 101 790 115ZM420 1089Q355 1044 355 962Q355 915 372 881T425 820T519 775Q546 767 578 759V1134Q479 1130 420 1089Z" />
<glyph unicode="%" glyph-name="uni0025" horiz-adv-x="1233" d="M620 1127Q629 1091 629 1056Q629 988 601 924T522 803L519 800H520H519Q459 734 389 698T246 661Q172 661 117 710H115Q114 710 114 713V712Q51 770 51 866Q51 915 66 963T108 1056T171 1139T250
1205T338 1249T431 1265Q492 1265 542 1233L1018 1479Q1037 1488 1054 1488Q1064 1488 1074 1483T1094 1469T1108 1448T1114 1420Q1114 1404 1105 1388L218 -108Q197 -144 167 -144Q153 -144 140 -138T117 -123T101 -102T94 -80Q94 -63 106 -42L877 1259L620 1127ZM483
1113Q469 1123 461 1129T431 1135Q388 1135 344 1111T263 1047T204 961T181 868Q181 833 198 813T251 792Q293 792 337 817T416 880T475 966T498 1057Q498 1092 483 1113ZM1118 625Q1119 623 1119 623Q1181 564 1181 469Q1181 394 1146 322T1056 194T933 104T797
70Q722 70 669 119Q666 119 666 122L665 123Q602 180 602 274Q602 411 709 533L713 537Q770 600 839 637T983 675Q1058 675 1114 627L1117 624L1118 625ZM1031 527Q1022 536 1009 540T981 544Q939 544 895 519T815 455T756 369T733 278Q733 245 750 223T800 201Q845
201 891 228T976 299H977Q1012 341 1031 384T1050 470Q1050 507 1031 527Z" />
<glyph unicode="&amp;" glyph-name="ampersand" horiz-adv-x="1233" d="M1125 662Q1130 645 1130 634Q1130 611 1110 593T1054 575Q1016 575 1001 623Q994 643 979 657T943 671Q909 671 887 640T847 558T812 445T770 323Q794 290 818 257T866 197T914 153T965
136Q990 141 1009 165T1044 231Q1060 275 1099 275Q1134 275 1153 256T1172 215Q1172 208 1171 202T1167 187Q1134 96 1080 51T959 5Q898 5 841 42T737 147Q728 160 720 169T707 187Q682 146 652 112T583 53T499 15T394 1Q302 1 239 24T135 89T78 192T60 326Q60
401 78 463T131 578T215 678T326 771Q228 952 228 1053Q228 1100 245 1139T295 1206T371 1249T471 1265Q528 1265 573 1250T650 1207T697 1141T714 1054Q714 961 660 880T500 730Q504 721 509 713T520 696Q556 636 596 576T678 456Q699 523 713 570T743 652T777
713T829 762Q883 801 944 801Q975 801 1003 791T1055 763T1097 719T1125 662ZM406 131Q445 132 477 146T535 185T583 240T622 308Q562 393 504 481T391 657Q335 615 297 575T235 495T201 412T190 323Q190 270 200 233T233 174T293 141T386 131H406ZM436 843Q513
895 548 948T584 1062Q582 1101 553 1118T471 1135Q417 1135 388 1116T359 1051Q359 986 436 843Z" />
<glyph unicode="&apos;" glyph-name="quotesingle" horiz-adv-x="1233" d="M724 1194L681 687Q675 626 621 626Q554 626 551 688L508 1194V1202Q508 1240 536 1268T616 1296Q668 1296 696 1268T724 1202V1194Z" />
<glyph unicode="(" glyph-name="parenleft" horiz-adv-x="1233" d="M758 1459Q781 1479 802 1479Q813 1479 825 1473T847 1456T863 1433T870 1408Q870 1385 844 1362Q761 1291 696 1203T586 1019T516 824T492 632Q492 535 514 430T579 226T688 40T839 -107Q854
-118 861 -131T869 -158Q869 -172 863 -184T847 -207T826 -224T804 -230Q783 -230 763 -214Q668 -147 597 -59T472 141Q414 262 388 389T362 631Q362 743 389 856T468 1077T593 1282T758 1459Z" />
<glyph unicode=")" glyph-name="parenright" horiz-adv-x="1233" d="M388 1362Q363 1384 363 1409Q363 1421 369 1433T385 1455T406 1472T429 1479Q449 1479 474 1459Q567 1376 640 1277T765 1070T843 851T870 631Q870 517 843 390T760 141Q708 29 636 -59T469
-214Q447 -230 426 -230Q415 -230 404 -224T384 -207T370 -184T364 -158Q364 -145 371 -132T393 -107Q472 -50 534 24T642 197Q694 307 717 421T740 638Q740 731 715 829T644 1023T533 1205T388 1362Z" />
<glyph unicode="*" glyph-name="asterisk" horiz-adv-x="1233" d="M508 716L530 899L381 789L379 787Q363 778 343 787T306 825Q290 854 292 876T310 907L312 908L482 981L311 1055L309 1057Q293 1066 291 1088T305 1139Q321 1167 341 1176T377 1176L380 1175L529
1064L508 1249V1252Q508 1270 526 1283T577 1296Q610 1296 628 1283T646 1252V1249L624 1064L773 1176L776 1177Q792 1186 812 1177T849 1139Q865 1111 863 1089T845 1058L843 1056L671 982L842 909L845 908Q860 899 862 877T848 826Q832 797 812 788T776 788L773
790L625 900L646 716V713Q646 695 628 682T577 669Q544 669 526 682T508 713V716Z" />
<glyph unicode="+" glyph-name="plus" horiz-adv-x="1233" d="M551 859Q551 925 617 925Q681 925 681 859V511H1030Q1096 511 1096 445Q1096 380 1030 380H681V31Q681 -34 617 -34Q551 -34 551 31V380H202Q137 380 137 445Q137 511 202 511H551V859Z" />
<glyph unicode="," glyph-name="comma" horiz-adv-x="1233" d="M762 281Q776 246 785 209T795 132Q795 65 775 5T718 -103T632 -184T526 -232Q513 -236 500 -236Q477 -236 460 -218T443 -162Q443 -142 450 -133T471 -117T504 -104T545 -85Q580 -65 606 -35T648
41Q651 51 652 52Q622 46 606 46Q572 46 542 59T488 94T451 148T437 215Q437 250 450 281T486 335T540 371T606 384Q654 384 696 358T762 281Z" />
<glyph unicode="-" glyph-name="hyphen" horiz-adv-x="1233" d="M242 409Q177 409 177 474Q177 539 242 539H991Q1056 539 1056 474Q1056 409 991 409H242Z" />
<glyph unicode="." glyph-name="period" horiz-adv-x="1233" d="M616 274Q648 274 676 262T725 229T758 180T770 120Q770 86 757 58T723 10T674 -22T616 -34Q586 -34 558 -23T509 9T475 58T462 120Q462 152 474 180T507 229T556 262T616 274Z" />
<glyph unicode="/" glyph-name="slash" horiz-adv-x="1233" d="M930 1391Q947 1431 981 1431Q997 1431 1011 1425T1035 1410T1050 1389T1056 1368Q1055 1360 1054 1352T1047 1334L304 -186Q284 -225 251 -225Q235 -225 222 -220T198 -205T183 -186T177 -165Q177
-151 187 -129L930 1391Z" />
<glyph unicode="0" glyph-name="zero" horiz-adv-x="1233" d="M616 1265Q820 1265 961 1066Q1095 876 1095 615Q1095 481 1058 363T955 157T802 18T616 -34Q549 -34 488 -11T374 55T277 157T202 288T154 443T137 615Q137 876 270 1066Q409 1265 616 1265ZM855
991Q751 1135 616 1135Q544 1135 481 1094T371 981T296 815T268 615Q268 511 295 417T369 252T479 139T616 97Q688 97 751 139T862 252T937 417T964 615Q964 837 855 991Z" />
<glyph unicode="1" glyph-name="one" horiz-adv-x="1233" d="M456 889Q439 883 425 883Q404 883 385 901T365 955Q365 994 408 1010Q513 1050 597 1107T754 1244Q776 1268 801 1268Q813 1268 824 1263T846 1248T862 1225T868 1196L866 31Q866 -33 802 -33Q737
-33 737 31V1050Q701 1021 668 999T600 957T531 921T456 889Z" />
<glyph unicode="2" glyph-name="two" horiz-adv-x="1233" d="M345 919Q345 854 278 854Q242 854 229 872T215 928Q215 1012 251 1075T347 1180T480 1244T628 1265Q701 1265 775 1245T907 1182T1003 1075T1040 924Q1038 767 950 663T689 497Q547 446 457 343T334
96L951 92Q1016 92 1016 27Q1016 -37 951 -37L251 -33Q193 -26 193 30V38Q203 139 238 229T332 394T469 526T645 619Q780 668 845 740T910 925Q910 978 886 1017T821 1083T731 1122T628 1135Q575 1134 524 1121T434 1081T370 1014T345 919Z" />
<glyph unicode="3" glyph-name="three" horiz-adv-x="1233" d="M387 950Q363 929 342 929Q331 929 319 936T296 953T280 976T273 1000Q273 1015 285 1031T314 1062T352 1091T388 1115Q518 1196 655 1196Q752 1196 829 1154T959 1031Q979 999 988 966T997 899Q997
862 985 824T951 749T898 679T829 617Q887 593 929 561T999 488T1040 403T1054 310Q1054 234 1025 163T942 31T813 -81T646 -164Q552 -198 453 -216T250 -247Q247 -248 244 -248T237 -248Q210 -248 194 -231T178 -180Q178 -122 236 -118Q333 -106 426 -89T601 -42Q677
-14 737 25T838 111T902 209T924 310Q924 361 901 401T834 468T731 510T597 525Q567 525 549 543T531 597Q531 645 587 654Q639 662 689 685T778 742T842 817T866 902Q866 922 859 942T824 994Q757 1065 650 1065Q618 1065 583 1057T512 1033T445 997T387 950Z"
/>
<glyph unicode="4" glyph-name="four" horiz-adv-x="1233" d="M801 -159Q800 -223 736 -223Q670 -223 672 -158L676 200H218Q203 200 191 205T169 219T154 238T149 259Q150 268 152 277T161 298L697 1230Q717 1265 756 1265Q820 1265 820 1199L808 331H1017Q1083
331 1083 266Q1083 200 1017 200H807L801 -159ZM678 331V950L330 331H678Z" />
<glyph unicode="5" glyph-name="five" horiz-adv-x="1233" d="M942 1265Q1007 1265 1007 1200Q1007 1135 942 1135H382L371 741Q505 802 640 802Q728 802 800 779T924 712T1004 606T1032 465Q1032 374 999 290T910 132T785 1T642 -94Q564 -134 468 -160T266 -186Q201
-186 201 -123Q201 -58 263 -55Q356 -51 436 -32T586 23T715 112T825 238Q860 289 880 347T901 463Q901 566 832 619T639 672Q562 672 485 648T340 572Q321 561 301 561Q268 561 253 577T238 628L253 1200Q253 1265 319 1265H942Z" />
<glyph unicode="6" glyph-name="six" horiz-adv-x="1233" d="M938 1434H946Q975 1434 991 1417T1008 1366Q1008 1308 948 1304Q834 1295 735 1246T547 1109Q449 1010 394 896T326 651Q392 717 479 746T654 776Q741 776 813 744T937 657T1017 530T1046 378Q1046
285 1016 209T929 79T793 -4T614 -34Q406 -34 296 103T186 497Q186 600 200 696T247 879T331 1047T455 1202Q551 1298 673 1359T938 1434ZM327 361Q348 225 419 161T614 97Q760 97 837 170T915 378Q915 437 895 486T839 571T751 626T637 646Q577 644 522 621T424
562T356 479T330 384V378Q330 370 327 361Z" />
<glyph unicode="7" glyph-name="seven" horiz-adv-x="1233" d="M298 960Q287 906 238 906Q203 906 186 923T168 967Q168 972 168 976T170 985L214 1212Q225 1265 278 1265H999Q1065 1265 1065 1200Q1065 1179 1051 1159Q852 878 752 577T652 -42Q652 -64 653 -85T654
-127Q654 -188 591 -192Q562 -192 548 -181T527 -149T521 -103T521 -46Q521 263 609 557T877 1135H332L298 960Z" />
<glyph unicode="8" glyph-name="eight" horiz-adv-x="1233" d="M616 1265Q709 1265 791 1239T935 1168T1033 1063T1069 933Q1069 857 1026 786T895 671Q1014 606 1072 529T1131 348Q1131 267 1090 197T978 76T814 -4T616 -34Q510 -34 416 -5T252 76T142 198T101
348Q101 452 159 529T336 671Q248 721 206 787T163 933Q163 1001 198 1061T294 1167T437 1238T616 1265ZM616 97Q693 97 763 117T885 171T969 250T1000 348Q1000 400 969 446T884 527T761 581T616 601Q538 601 469 581T347 527T263 446T232 348Q232 297 262 251T345
171T467 117T616 97ZM853 1068Q755 1135 616 1135Q553 1135 495 1119T392 1076T321 1012T294 933Q294 890 321 853T392 789T495 747T616 731Q677 731 735 746T838 789T910 853T938 933Q938 1007 853 1068Z" />
<glyph unicode="9" glyph-name="nine" horiz-adv-x="1233" d="M294 -203H286Q223 -203 223 -133Q223 -77 283 -72Q368 -65 445 -36T588 40T710 148T806 280T872 426T905 579Q904 577 893 569Q827 512 748 483T580 454Q496 454 424 484T299 568T216 695T186 853Q186
944 215 1019T300 1149T436 1234T618 1265Q721 1265 801 1230T935 1128T1018 961T1046 734Q1046 631 1031 535T984 351T901 183T777 30Q680 -67 558 -128T294 -203ZM905 871Q884 998 813 1066T618 1135Q546 1135 490 1116T395 1059T337 970T317 853Q317 793 337
744T393 659T480 605T595 585Q658 588 714 611T811 670T877 753T902 847Q902 849 902 850T901 853Q901 858 902 862T905 871Z" />
<glyph unicode=":" glyph-name="colon" horiz-adv-x="1233" d="M616 274Q648 274 676 262T725 229T758 180T770 120Q770 86 757 58T723 10T674 -22T616 -34Q586 -34 558 -23T509 9T475 58T462 120Q462 152 474 180T507 229T556 262T616 274ZM616 857Q646 857 673
845T722 812T757 763T770 702Q770 670 758 642T725 593T676 560T616 548Q584 548 556 560T507 593T474 642T462 702Q462 735 474 763T508 812T558 845T616 857Z" />
<glyph unicode=";" glyph-name="semicolon" horiz-adv-x="1233" d="M762 281Q776 246 785 209T795 132Q795 65 775 5T718 -103T632 -184T526 -232Q513 -236 500 -236Q477 -236 460 -218T443 -162Q443 -142 450 -133T471 -117T504 -104T545 -85Q580 -65 606 -35T648
41Q651 51 652 52Q622 46 606 46Q572 46 542 59T488 94T451 148T437 215Q437 250 450 281T486 335T540 371T606 384Q654 384 696 358T762 281ZM606 921Q640 921 670 908T724 871T761 817T775 752Q775 716 761 686T724 632T670 596T606 583Q571 583 540 596T486
632T450 686T437 752Q437 787 450 818T487 872T540 908T606 921Z" />
<glyph unicode="&lt;" glyph-name="less" horiz-adv-x="1233" d="M389 415Q370 434 366 452Q358 481 388 511L710 833Q756 879 802 833Q848 787 802 741L524 463L806 182Q852 136 806 90Q760 44 714 90L389 415Z" />
<glyph unicode="=" glyph-name="equal" horiz-adv-x="1233" d="M235 589Q170 589 170 654Q170 719 235 719H998Q1063 719 1063 654Q1063 589 998 589H235ZM235 260Q170 260 170 326Q170 391 235 391H998Q1063 391 1063 326Q1063 260 998 260H235Z" />
<glyph unicode="&gt;" glyph-name="greater" horiz-adv-x="1233" d="M821 508Q840 489 844 471Q852 442 822 412L500 90Q454 44 408 90Q362 136 408 182L686 460L404 741Q358 787 404 833Q450 879 496 833L821 508Z" />
<glyph unicode="?" glyph-name="question" horiz-adv-x="1233" d="M605 249Q631 249 654 239T694 212T721 171T731 123Q731 99 722 77T696 37T656 10T605 -1Q578 -1 556 9T516 36T490 76T480 123Q480 149 490 172T517 212T556 239T605 249ZM676 448Q676 444 676
441T677 435Q677 375 606 375Q566 375 555 405T543 489Q543 717 756 830Q780 843 801 860T840 897T867 938T877 978Q877 1014 859 1043T806 1092T726 1124T624 1135Q533 1135 466 1110T373 1039Q409 1036 432 1009T456 940Q456 915 448 895T427 862T398 841T366
834Q303 834 265 876T226 990Q226 1051 255 1102T336 1189T462 1245T624 1265Q710 1265 780 1244T901 1185T979 1095T1007 978Q1007 940 992 902T952 830T891 766T817 715Q741 675 708 621T674 488Q674 478 674 469T676 448Z" />
<glyph unicode="A" glyph-name="A" horiz-adv-x="1233" d="M847 97L792 302H441L385 97H504Q569 97 569 31Q569 -34 504 -34H122Q57 -34 57 31Q57 97 122 97H250L553 1216Q558 1237 576 1251T623 1266Q665 1266 679 1217L983 97H1111Q1175 97 1175 31Q1175 -34
1111 -34H728Q663 -34 663 31Q663 97 728 97H847ZM756 432L616 950L476 432H756Z" />
<glyph unicode="B" glyph-name="B" horiz-adv-x="1233" d="M193 1135Q128 1135 128 1200Q128 1265 193 1265H746Q796 1265 854 1241T963 1171T1046 1062T1079 917Q1079 838 1047 771T949 650Q1045 596 1092 515T1139 333Q1139 250 1112 183T1033 67T910 -7T746
-34Q740 -34 739 -33Q736 -33 735 -33T732 -34H158Q93 -34 93 31Q93 97 158 97H336V1135H193ZM740 96H746Q871 96 940 157T1009 333Q1009 382 990 425T935 500T852 550T746 569H466V97H732Q734 97 735 97T740 96ZM466 699H746Q778 699 813 716T879 762T929 831T949
917Q949 964 930 1004T880 1073T815 1118T746 1135H466V699Z" />
<glyph unicode="C" glyph-name="C" horiz-adv-x="1233" d="M955 387Q970 434 1010 434Q1045 434 1064 415T1084 374Q1084 364 1079 347Q1049 256 1003 184T898 61T771 -17T632 -44Q525 -44 439 5T280 155Q144 345 144 610Q144 699 161 782T209 938T285 1071T383
1174T501 1241T632 1265Q715 1265 784 1230T908 1125Q919 1111 923 1103T930 1094Q935 1121 940 1151T955 1207T979 1250T1016 1267Q1051 1267 1070 1248T1089 1205Q1089 1193 1086 1180Q1063 1108 1051 1034T1039 881Q1039 847 1043 813T1048 742Q1048 713 1030
697T976 681Q927 681 918 737L917 740V741Q902 834 877 907T815 1030T733 1108T632 1135Q558 1135 493 1093T380 978T303 811T275 610Q275 504 303 409T379 242T493 128T632 86Q684 86 732 107T823 168T899 263T955 387Z" />
<glyph unicode="D" glyph-name="D" horiz-adv-x="1233" d="M169 1135Q104 1135 104 1200Q104 1265 169 1265H639Q740 1265 829 1218T985 1087T1090 888T1129 634Q1129 475 1096 351T999 142T845 11T639 -34H169Q104 -34 104 31Q104 97 169 97H339V1135H169ZM639
1135H469V97H639Q640 96 641 96H644Q731 97 797 133T908 239T976 407T999 634Q999 743 971 834T894 993T780 1097T639 1135Z" />
<glyph unicode="E" glyph-name="E" horiz-adv-x="1233" d="M174 1135Q109 1135 109 1200Q109 1265 174 1265H949Q999 1265 1013 1214L1120 814Q1124 802 1124 788Q1124 765 1105 748T1049 731Q1007 731 994 781L899 1135H474V681H687V798Q687 863 752 863Q818
863 818 798V387Q818 321 752 321Q687 321 687 387V550H474V97H897Q906 97 923 118L990 387Q1002 437 1048 437Q1084 437 1102 420T1120 379Q1120 367 1117 355L1032 15Q1020 -35 976 -35L174 -34Q109 -34 109 31Q109 97 174 97H344V1135H174Z" />
<glyph unicode="F" glyph-name="F" horiz-adv-x="1233" d="M192 1135Q126 1135 126 1200Q126 1265 192 1265H991Q1052 1265 1056 1204L1131 719Q1132 714 1132 710T1132 702Q1132 674 1114 659T1058 643Q1012 643 1003 699L935 1135H496V712Q498 713 505 713H727L716
901V909Q716 969 786 969Q842 969 846 908L879 359V353Q879 289 809 289Q752 289 749 350L735 582H505Q498 582 496 583V97H719Q785 97 785 31Q785 -34 719 -34H430H166Q101 -34 101 31Q101 97 166 97H365V1135H192Z" />
<glyph unicode="G" glyph-name="G" horiz-adv-x="1233" d="M888 1219Q902 1266 942 1266Q978 1266 997 1248T1016 1207Q1016 1193 1012 1181Q989 1107 979 1031T968 880Q968 845 972 812T976 746Q976 715 959 698T906 681Q851 681 846 740V741Q814 933 747 1034T576
1135Q507 1135 446 1093T339 979T266 812T239 610Q239 503 265 408T337 242T444 128T576 86Q619 86 657 118T723 202T770 320T791 455H683Q619 455 619 521Q619 587 683 587H1060Q1125 587 1125 521Q1125 455 1060 455H922Q924 404 930 348T949 241T977 151T1015
97Q1047 74 1047 47Q1047 34 1041 22T1025 -1T1004 -17T982 -24Q961 -24 941 -11T903 25T868 78T841 143Q835 134 830 126T820 108Q722 -44 576 -44Q511 -44 451 -21T339 46T245 148T172 281T125 437T108 610Q108 746 145 865T245 1073T394 1213T576 1265Q661 1265
733 1225T858 1101Q869 1159 888 1219Z" />
<glyph unicode="H" glyph-name="H" horiz-adv-x="1233" d="M729 1135Q664 1135 664 1200Q664 1265 729 1265L1124 1264Q1189 1264 1189 1199Q1189 1134 1124 1134L999 1135V97L1124 96Q1189 96 1189 30Q1189 -35 1124 -35L729 -34Q664 -34 664 31Q664 97 729 97H868V550H365V97H499Q564
97 564 31Q564 -34 499 -34L106 -36Q41 -36 41 29Q41 95 106 95L235 97V1135L106 1133Q41 1133 41 1198Q41 1263 106 1263L499 1265Q564 1265 564 1200Q564 1135 499 1135H365V681H868V1135H729Z" />
<glyph unicode="I" glyph-name="I" horiz-adv-x="1233" d="M252 1135Q187 1135 187 1200Q187 1265 252 1265H981Q1046 1265 1046 1200Q1046 1135 981 1135H682V97H981Q1046 97 1046 31Q1046 -34 981 -34H252Q187 -34 187 31Q187 97 252 97H551V1135H252Z" />
<glyph unicode="J" glyph-name="J" horiz-adv-x="1233" d="M449 1135Q384 1135 384 1200Q384 1265 449 1265H1052Q1117 1265 1117 1200Q1117 1135 1052 1135H816V325Q816 244 792 178T724 65T615 -8T471 -34Q391 -34 326 -14T214 42T142 128T116 240V243Q115 249
115 255T115 267Q115 360 151 411T250 470H251Q252 471 258 471Q277 471 294 464T325 444T346 411T354 367Q354 345 346 327T325 296T295 276T262 269Q258 269 254 269T246 270V249Q246 176 305 137T471 97Q580 97 632 157T685 325V1135H449Z" />
<glyph unicode="K" glyph-name="K" horiz-adv-x="1233" d="M95 1135Q30 1135 30 1200Q30 1265 95 1265H498Q563 1265 563 1200Q563 1135 498 1135H328V558L493 766Q495 770 499 774L785 1135H685Q620 1135 620 1200Q620 1265 685 1265H1087Q1152 1265 1152 1200Q1152
1135 1087 1135H951L625 723L977 97H1137Q1203 97 1203 31Q1203 -34 1137 -34H735Q669 -34 669 31Q669 97 735 97H827L537 612L328 349V97H498Q563 97 563 31Q563 -34 498 -34H95Q30 -34 30 31Q30 97 95 97H198V1135H95Z" />
<glyph unicode="L" glyph-name="L" horiz-adv-x="1233" d="M155 1135Q90 1135 90 1200Q90 1265 155 1265H766Q831 1265 831 1200Q831 1135 766 1135H526V97H1009L986 476V484Q986 544 1056 544Q1113 544 1117 482L1143 35V29Q1143 -29 1082 -33L1078 -34H460H155Q90
-34 90 31Q90 97 155 97H395V1135H155Z" />
<glyph unicode="M" glyph-name="M" horiz-adv-x="1233" d="M820 -34Q754 -34 754 31Q754 97 820 97H914V1135H902L680 19Q675 -5 657 -19T610 -34Q562 -34 552 18L330 1135H318V97H412Q477 97 477 31Q477 -34 412 -34H89Q24 -34 24 31Q24 97 89 97H187V1135H91Q25
1135 25 1201Q25 1267 91 1267H383Q441 1267 448 1209L616 353L785 1214Q795 1266 849 1266L1141 1267Q1206 1267 1206 1201Q1206 1135 1141 1135H1045V97H1142Q1208 97 1208 31Q1208 -34 1142 -34H979H820Z" />
<glyph unicode="N" glyph-name="N" horiz-adv-x="1233" d="M113 1135Q48 1135 48 1200Q48 1265 113 1265H426Q473 1265 487 1221L871 343V1135H698Q632 1135 632 1200Q632 1265 698 1265H937H1137Q1202 1265 1202 1200Q1202 1135 1137 1135H1002V31Q1002 5 982
-15T930 -36Q895 -36 877 5L393 1112V86H543Q608 86 608 20Q608 -44 543 -44H95Q30 -44 30 20Q30 86 95 86H262V1135H113Z" />
<glyph unicode="O" glyph-name="O" horiz-adv-x="1233" d="M616 1265Q824 1265 968 1067Q1037 972 1070 859T1104 615Q1104 351 968 164Q824 -34 616 -34Q548 -34 486 -11T370 54T271 156T195 288T146 443T128 615Q128 877 264 1067Q406 1265 616 1265ZM862 990Q757
1135 616 1135Q542 1135 477 1093T364 980T287 815T259 615Q259 510 287 416T363 251T477 139T616 97Q689 97 754 138T868 250T945 415T973 615Q973 837 862 990Z" />
<glyph unicode="P" glyph-name="P" horiz-adv-x="1233" d="M223 1135Q158 1135 158 1200Q158 1265 223 1265H776Q826 1265 884 1241T993 1171T1076 1062T1109 917Q1109 866 1094 818T1051 728T983 653T894 598Q825 569 776 569H496V97H762Q828 97 828 31Q828 -34
762 -34H188Q123 -34 123 31Q123 97 188 97H366V1135H223ZM496 699H776Q808 699 843 716T909 762T959 831T979 917Q979 964 960 1004T910 1073T845 1118T776 1135H496V699Z" />
<glyph unicode="Q" glyph-name="Q" horiz-adv-x="1233" d="M616 1265Q824 1265 968 1067Q1037 972 1070 859T1104 615Q1104 526 1087 440T1036 279T953 142T841 38Q843 9 849 -19T866 -69T888 -104T916 -118Q933 -118 945 -91T961 -26Q965 32 1023 32Q1092 32
1092 -32Q1092 -83 1076 -123T1034 -190T977 -233T916 -248Q878 -248 846 -232T789 -185T745 -113T717 -20Q663 -34 616 -34Q548 -34 486 -11T370 54T271 156T195 288T146 443T128 615Q128 877 264 1067Q406 1265 616 1265ZM347 274Q376 329 430 362T554 395Q601
394 642 378T718 335T778 271T819 190Q897 268 935 376T973 615Q973 721 945 815T868 981T754 1093T616 1135Q542 1135 477 1093T364 980T287 815T259 615Q259 420 347 274ZM704 113Q699 146 686 173T653 221T606 252T547 264Q505 264 479 236T447 159Q527 97 616
97Q665 97 704 113Z" />
<glyph unicode="R" glyph-name="R" horiz-adv-x="1233" d="M171 1135Q106 1135 106 1200Q106 1265 171 1265H724Q774 1265 832 1241T941 1171T1024 1062T1057 917Q1057 864 1041 815T996 724T924 648T830 593L928 97H1096Q1161 97 1161 31Q1161 -34 1096 -34H874Q820
-34 810 18L702 569H444V97H655Q719 97 719 31Q719 -34 655 -34H136Q71 -34 71 31Q71 97 136 97H314V1135H171ZM740 701Q742 701 742 702H748Q782 709 814 729T872 777T912 842T927 917Q927 964 908 1004T858 1073T793 1118T724 1135H444V699H724Q726 699 730 699T740
701Z" />
<glyph unicode="S" glyph-name="S" horiz-adv-x="1233" d="M924 1229Q943 1267 975 1267Q991 1267 1004 1262T1028 1247T1043 1228T1049 1207Q1049 1190 1040 1171Q1025 1141 1017 1107T1010 1034Q1010 1003 1015 965T1032 879Q1033 874 1033 869T1034 859Q1034
833 1016 817T961 800Q946 800 937 804T921 816T911 837T901 866Q836 1135 602 1135Q486 1135 421 1090T355 962Q355 915 372 881T425 820T519 776T656 744Q753 728 830 693T963 606T1047 490T1077 350Q1077 270 1048 200T967 78T842 -4T684 -34Q565 -34 472 7T318
134Q313 104 307 71T290 11T265 -35T228 -53Q193 -53 175 -35T156 7Q156 21 160 34Q180 91 189 157T199 305Q199 335 198 368T195 437H196V445Q196 474 214 490T269 507Q315 507 324 454Q343 361 373 294T446 183T548 118T684 97Q742 97 790 115T872 167T926 246T946
350Q946 400 925 443T863 521T765 579T635 616Q540 630 465 657T336 726T254 827T225 962Q225 1030 251 1086T326 1181T445 1243T602 1265Q690 1265 764 1238T895 1153Q902 1185 924 1229Z" />
<glyph unicode="T" glyph-name="T" horiz-adv-x="1233" d="M257 660Q249 603 197 603Q162 603 145 620T128 668V677L198 1208Q205 1265 263 1265H968Q1029 1265 1034 1203L1103 677Q1104 672 1104 662Q1104 635 1087 619T1034 603Q981 603 974 660L911 1135H681V97H941Q1007
97 1007 31Q1007 -34 941 -34H616H290Q225 -34 225 31Q225 97 290 97H550V1135H320L257 660Z" />
<glyph unicode="U" glyph-name="U" horiz-adv-x="1233" d="M341 1135V325Q341 277 363 236T422 164T510 115T616 97Q671 97 721 114T808 163T868 235T890 325V1135H724Q658 1135 658 1200Q658 1265 724 1265H1119Q1185 1265 1185 1200Q1185 1135 1119 1135H1020V325Q1020
251 988 186T901 72T773 -5T616 -34Q531 -34 457 -5T329 73T243 187T211 325V1135H112Q47 1135 47 1200Q47 1265 112 1265H507Q573 1265 573 1200Q573 1135 507 1135H341Z" />
<glyph unicode="V" glyph-name="V" horiz-adv-x="1233" d="M983 1135L679 14Q665 -35 624 -35Q597 -34 578 -21T553 15L250 1135H122Q57 1135 57 1200Q57 1265 122 1265H504Q569 1265 569 1200Q569 1135 504 1135H385L616 280L847 1135H728Q663 1135 663 1200Q663
1265 728 1265H1111Q1175 1265 1175 1200Q1175 1135 1111 1135H983Z" />
<glyph unicode="W" glyph-name="W" horiz-adv-x="1233" d="M110 1135Q45 1135 45 1200Q45 1265 110 1265H323Q389 1265 389 1200Q389 1135 323 1135H281L385 460L489 1135Q425 1135 425 1200Q425 1265 490 1265H746Q811 1265 811 1200Q811 1135 746 1135H745L849
460L953 1135H911Q845 1135 845 1200Q845 1265 911 1265H1131Q1196 1265 1196 1200Q1196 1135 1131 1135H1085L913 21Q904 -34 854 -34Q822 -34 805 -19T784 22L616 1106L450 22Q446 -4 429 -19T380 -34Q330 -34 321 21L149 1135H110Z" />
<glyph unicode="X" glyph-name="X" horiz-adv-x="1233" d="M968 1135L690 629L982 97H1133Q1199 97 1199 31Q1199 -34 1133 -34H723Q658 -34 658 31Q658 97 723 97H833L616 493L398 97H509Q574 97 574 31Q574 -34 509 -34H98Q33 -34 33 31Q33 97 98 97H249L541
629L264 1135H135Q69 1135 69 1200Q69 1265 135 1265H533Q598 1265 598 1200Q598 1135 533 1135H412L616 764L819 1135H698Q633 1135 633 1200Q633 1265 698 1265H1097Q1162 1265 1162 1200Q1162 1135 1097 1135H968Z" />
<glyph unicode="Y" glyph-name="Y" horiz-adv-x="1233" d="M714 1135Q648 1135 648 1200Q648 1265 714 1265H1126Q1192 1265 1192 1200Q1192 1135 1126 1135H1000L681 536V97H916Q982 97 982 31Q982 -34 916 -34H314Q249 -34 249 31Q249 97 314 97H551V536L232
1135H105Q40 1135 40 1200Q40 1265 105 1265H517Q583 1265 583 1200Q583 1135 517 1135H379L615 691L852 1135H714Z" />
<glyph unicode="Z" glyph-name="Z" horiz-adv-x="1233" d="M319 784Q309 732 263 732Q226 732 208 747T189 789Q189 800 192 812L277 1214Q287 1265 341 1265H955Q1020 1265 1020 1200Q1021 1188 1017 1179T1008 1162L345 97H906L942 435Q948 494 1005 494Q1039
494 1056 478T1073 433Q1073 430 1073 427T1072 421L1029 28Q1027 -34 964 -34L228 -33H224Q210 -33 199 -27T179 -12T165 7T160 27Q161 36 163 45T173 66L837 1135H393L319 784Z" />
<glyph unicode="[" glyph-name="bracketleft" horiz-adv-x="1233" d="M758 1459Q781 1479 802 1479Q813 1479 825 1473T847 1456T863 1433T870 1408Q870 1385 844 1362Q761 1291 696 1203T586 1019T516 824T492 632Q492 535 514 430T579 226T688 40T839 -107Q854
-118 861 -131T869 -158Q869 -172 863 -184T847 -207T826 -224T804 -230Q783 -230 763 -214Q668 -147 597 -59T472 141Q414 262 388 389T362 631Q362 743 389 856T468 1077T593 1282T758 1459Z" />
<glyph unicode="\" glyph-name="backslash" horiz-adv-x="1233" d="M1046 -129Q1056 -151 1056 -165Q1056 -175 1051 -185T1035 -205T1012 -219T982 -225Q949 -225 929 -186L186 1334Q181 1343 180 1351T177 1368Q177 1378 182 1389T198 1409T222 1425T252 1431Q286
1431 303 1391L1046 -129Z" />
<glyph unicode="]" glyph-name="bracketright" horiz-adv-x="1233" d="M388 1362Q363 1384 363 1409Q363 1421 369 1433T385 1455T406 1472T429 1479Q449 1479 474 1459Q567 1376 640 1277T765 1070T843 851T870 631Q870 517 843 390T760 141Q708 29 636 -59T469
-214Q447 -230 426 -230Q415 -230 404 -224T384 -207T370 -184T364 -158Q364 -145 371 -132T393 -107Q472 -50 534 24T642 197Q694 307 717 421T740 638Q740 731 715 829T644 1023T533 1205T388 1362Z" />
<glyph unicode="^" glyph-name="asciicircum" horiz-adv-x="1233" d="M247 1045L549 1382Q591 1429 647 1429H657H668Q722 1429 766 1382L1068 1045Q1078 1034 1083 1024T1088 1002Q1088 987 1082 974T1067 952T1047 937T1027 931Q1018 931 1009 934T989 944L658
1134L326 944Q315 938 306 935T288 931Q279 931 269 936T249 950T234 972T228 1000Q228 1025 247 1045Z" />
<glyph unicode="_" glyph-name="underscore" horiz-adv-x="1233" d="M-3 -465Q-68 -465 -68 -400Q-68 -334 -3 -334H1236Q1302 -334 1302 -400Q1302 -465 1236 -465H-3Z" />
<glyph unicode="`" glyph-name="grave" horiz-adv-x="1233" d="M583 1382L885 1045Q895 1034 900 1024T905 1002Q905 987 899 974T884 952T864 937T844 931Q835 931 826 934T806 944L396 1179Q327 1218 327 1287Q327 1315 340 1341T375 1386T425 1417T485 1429Q539
1429 583 1382Z" />
<glyph unicode="a" glyph-name="a" horiz-adv-x="1233" d="M358 702Q373 679 373 655Q373 611 345 586T275 560Q237 560 211 588T185 657Q185 705 211 743T284 808T396 849T540 863Q624 863 695 845T817 793T897 712T926 609V204Q926 184 928 165T934 131T943
107T957 97Q959 97 959 96Q970 100 976 131T983 201V215Q983 281 1051 281Q1080 281 1096 266T1113 218V201Q1113 81 1072 25T955 -34H957Q905 -34 867 -3T810 94Q652 -34 500 -34Q419 -34 349 -14T228 42T148 129T119 241Q119 404 243 453Q365 502 525 529Q598
541 670 556T796 602V609Q796 636 775 659T719 698T637 724T540 733Q479 733 433 725T358 702ZM796 257V459Q738 436 674 424T547 400Q489 389 438 377T340 351Q250 322 250 241Q250 209 269 183T321 137T401 108T500 97Q539 97 576 109T650 143T723 194T796 257ZM957
96H959H957Z" />
<glyph unicode="b" glyph-name="b" horiz-adv-x="1233" d="M176 1135Q111 1135 111 1200Q111 1265 176 1265H419Q485 1265 485 1200V752Q591 863 738 863Q818 863 888 827T1010 729T1092 586T1122 415Q1122 323 1092 241T1009 98T887 2T738 -34Q591 -34 485 77V31Q485
-34 419 -34Q354 -34 354 31V1135H176ZM914 644Q839 733 738 733Q684 733 638 707T558 637T505 536T485 415Q485 351 504 294T557 193T637 123T738 97Q791 97 837 122T917 190T971 291T991 415Q991 549 914 644Z" />
<glyph unicode="c" glyph-name="c" horiz-adv-x="1233" d="M921 253Q941 288 971 288Q986 288 999 282T1022 267T1039 247T1045 226Q1045 209 1033 188Q1003 135 960 94T864 25T752 -19T634 -34Q532 -34 450 -5T310 78T220 209T188 382Q188 484 222 571T315 724T456
826T634 863Q713 863 778 842T889 785T960 700T988 594V591V590Q988 559 973 530T935 478T882 440T823 425H820Q796 425 775 432T739 454T714 488T704 535Q704 556 712 574T734 606T766 628T805 636Q816 636 828 634T851 627Q832 677 776 705T634 733Q563 733 505
706T406 630T342 518T319 382Q319 240 401 169T634 97Q728 97 803 138T921 253Z" />
<glyph unicode="d" glyph-name="d" horiz-adv-x="1233" d="M546 1135Q480 1135 480 1200Q480 1265 546 1265H831Q897 1265 897 1200V97H1039Q1105 97 1105 31Q1105 -34 1039 -34H845Q843 -34 842 -34T838 -33Q837 -34 831 -34Q766 -34 766 31V77Q658 -34 512 -34Q434
-34 365 0T243 95T159 238T128 415Q128 507 158 588T240 731T362 827T512 863Q656 863 766 752V1135H546ZM512 733Q459 733 413 708T332 639T279 537T259 415Q259 349 278 292T332 191T413 122T512 97Q565 97 611 122T692 191T746 292T766 415Q766 479 746 537T692
638T611 707T512 733Z" />
<glyph unicode="e" glyph-name="e" horiz-adv-x="1233" d="M925 229Q947 254 970 254Q981 254 993 248T1016 232T1034 210T1041 186Q1041 164 1020 139T969 90T906 46T849 14Q747 -34 661 -34Q557 -34 467 1T311 96T206 239T167 415Q167 506 203 587T303 730T450
827T629 863Q721 863 801 829T940 734T1032 592T1066 415Q1066 349 1001 349H305Q318 291 351 245T431 165T537 115T661 97Q690 97 724 106T792 131T861 172T925 229ZM393 639Q325 571 304 480H930Q918 539 891 586T823 665T734 715T629 733Q490 733 393 639Z"
/>
<glyph unicode="f" glyph-name="f" horiz-adv-x="1233" d="M434 97V733H204Q139 733 139 798Q139 863 204 863H434V874Q434 965 460 1037T534 1160T646 1238T785 1265Q847 1265 903 1245T1001 1190T1068 1110T1093 1015Q1093 959 1064 932T988 905Q968 905 950
912T918 932T895 964T886 1007Q886 1030 896 1050T926 1084L928 1082Q900 1108 865 1121T785 1135Q683 1135 625 1067T564 874L565 863H804Q869 863 869 798Q869 733 804 733H565V97H897Q962 97 962 31Q962 -34 897 -34H204Q139 -34 139 31Q139 97 204 97H434Z"
/>
<glyph unicode="g" glyph-name="g" horiz-adv-x="1233" d="M555 863Q677 863 772 786Q810 819 857 840T947 863H951Q982 863 1010 852T1059 821T1093 777T1109 723V720Q1109 661 1080 626T1006 589H999H996H995Q966 593 943 616T916 678Q916 686 918 695T922 712T927
724T929 729Q912 724 895 715T854 685Q885 622 885 550Q885 484 859 427T787 328T682 262T555 238Q444 238 359 298Q336 272 324 247T311 195Q311 169 323 148Q325 148 325 145Q454 201 612 201Q713 201 802 178T957 114T1062 18T1101 -99Q1101 -162 1063 -217T958
-312T802 -376T612 -400Q510 -400 421 -377T266 -313T162 -217T124 -99Q124 0 214 77L213 79Q180 130 180 193Q180 246 203 299T269 392Q224 467 224 550Q224 614 250 671T322 770T427 838T555 863ZM347 11Q345 10 345 10Q255 -38 255 -99Q255 -133 284 -164T363
-218T477 -255T612 -269Q681 -269 745 -256T860 -219T940 -165T970 -99Q970 -65 940 -34T859 20T745 56T612 70Q454 70 347 11ZM698 677Q637 733 555 733Q515 733 479 719T415 680T371 622T355 550Q355 512 371 479T414 422T477 383T555 368Q595 368 631 382T695
421T739 479T755 550Q755 624 698 677Z" />
<glyph unicode="h" glyph-name="h" horiz-adv-x="1233" d="M105 1135Q40 1135 40 1200Q40 1265 105 1265H323Q387 1265 387 1200L381 658Q482 759 574 811T757 863Q812 863 857 844T935 789T986 698T1007 572L1020 97H1127Q1193 97 1193 31Q1193 -34 1127 -34H766Q701
-34 701 31Q701 97 766 97H889L877 569Q875 648 848 690T757 733Q714 733 668 712T575 655T478 570T379 465L374 97H496Q562 97 562 31Q562 -34 496 -34H112Q47 -34 47 31Q47 97 112 97H244V496V1135H105Z" />
<glyph unicode="i" glyph-name="i" horiz-adv-x="1233" d="M572 1203Q598 1203 620 1193T659 1167T685 1128T694 1082Q694 1057 684 1035T658 996T619 969T572 959Q547 959 525 969T487 995T460 1034T450 1082Q450 1131 486 1167V1168Q521 1203 572 1203ZM987
97Q1052 97 1052 31Q1052 -34 987 -34H246Q181 -34 181 31Q181 97 246 97H531V733H246Q181 733 181 798Q181 863 246 863H597Q662 863 662 798V97H987Z" />
<glyph unicode="j" glyph-name="j" horiz-adv-x="1233" d="M811 1225Q840 1225 866 1215T911 1186T942 1144T953 1093Q953 1064 941 1040T910 998T864 970T811 960Q781 960 755 970T710 999T679 1041T668 1093Q668 1119 679 1143T709 1185T754 1214T811 1225ZM437
733Q372 733 372 798Q372 863 437 863H864Q930 863 930 798L960 37Q963 4 963 -23Q963 -101 941 -165T878 -276T782 -349T661 -375Q574 -375 502 -356T378 -303T298 -221T269 -116Q269 -56 285 -19T325 38T373 65T414 72Q435 72 455 63T490 40T514 7T524 -32V-44Q518
-83 487 -108V-109Q457 -133 422 -134Q405 -134 401 -131Q406 -157 429 -178T487 -214T567 -237T661 -245Q699 -245 730 -230T784 -186T819 -116T832 -23Q832 -15 832 -4T830 24L802 733H437Z" />
<glyph unicode="k" glyph-name="k" horiz-adv-x="1233" d="M156 1135Q91 1135 91 1200Q91 1265 156 1265H382Q448 1265 448 1200Q448 1196 447 1195L455 516L679 733Q615 733 615 798Q615 863 680 863H1060Q1125 863 1125 798Q1125 733 1060 733H866L677 549L956
97H1075Q1141 97 1141 31Q1141 -34 1075 -34H751Q686 -34 686 31Q686 97 751 97H803L581 456L458 337V97H554Q619 97 619 31Q619 -34 554 -34H222Q157 -34 157 31Q157 97 222 97H330V367V1135H156Z" />
<glyph unicode="l" glyph-name="l" horiz-adv-x="1233" d="M225 1135Q160 1135 160 1200Q160 1265 225 1265H603Q668 1265 668 1200V97H1007Q1073 97 1073 31Q1073 -34 1007 -34H229Q164 -34 164 31Q164 97 229 97H537V1135H225Z" />
<glyph unicode="m" glyph-name="m" horiz-adv-x="1233" d="M109 733Q44 733 44 798Q44 863 109 863H279Q344 863 344 798V793Q420 863 515 863Q576 863 619 837T688 753Q775 863 897 863Q988 863 1039 804T1093 620L1101 97H1139Q1204 97 1204 31Q1204 -34 1139
-34H923Q857 -34 857 31Q857 97 923 97H970L963 618Q962 680 949 706T897 733Q865 733 836 714T782 661T741 581T717 481Q716 476 715 472T713 466L719 97H757Q822 97 822 31Q822 -34 757 -34H541Q475 -34 475 31Q475 97 541 97H588L581 618Q580 680 567 706T515
733Q485 733 457 716T406 669T366 596T339 502L331 96H370Q436 96 436 31Q436 -34 370 -34H93Q28 -34 28 31Q28 96 93 96H201L208 471Q205 480 205 489Q205 496 206 502T209 517L212 733H109Z" />
<glyph unicode="n" glyph-name="n" horiz-adv-x="1233" d="M148 733Q84 733 84 798Q84 863 148 863H318Q350 863 367 847T384 798L381 663Q435 715 483 752T577 814T665 851T753 863Q867 863 933 788T1004 572L1015 97H1124Q1189 97 1189 31Q1189 -34 1124 -34H762Q697
-34 697 31Q697 97 762 97H886L873 569Q868 652 842 692T753 733Q711 733 666 713T573 657T477 573T378 468L371 97H492Q558 97 558 31Q558 -34 492 -34H108Q43 -34 43 31Q43 97 108 97H241L247 471Q245 476 245 480T245 490Q245 500 248 511L253 733H148Z" />
<glyph unicode="o" glyph-name="o" horiz-adv-x="1233" d="M616 863Q704 863 782 828T918 731T1011 588T1046 415Q1046 322 1012 241T920 98T783 2T616 -34Q527 -34 449 1T313 97T220 240T186 415Q186 507 220 588T313 731T450 827T616 863ZM827 640Q738 733 616
733Q555 733 501 708T406 640T341 538T317 415Q317 350 340 293T403 192T497 123T616 97Q679 97 733 122T828 190T892 292T916 415Q916 546 827 640Z" />
<glyph unicode="p" glyph-name="p" horiz-adv-x="1233" d="M469 -245H570Q635 -245 635 -310Q635 -375 570 -375H405H398H245Q179 -375 179 -310Q179 -245 245 -245H338L331 733H226Q161 733 161 798Q161 863 226 863H396Q461 863 461 798V754Q564 863 703 863Q779
863 846 828T963 731T1042 589T1071 415Q1071 323 1042 242T964 99T847 2T703 -34Q567 -34 467 69L469 -245ZM703 97Q752 97 795 122T871 190T922 291T941 415Q941 479 923 536T872 637T796 707T703 733Q653 733 610 708T535 639T484 537T465 415Q465 350 483 292T534
191T610 122T703 97Z" />
<glyph unicode="q" glyph-name="q" horiz-adv-x="1233" d="M532 863Q675 863 781 754V798Q781 863 846 863H991Q1057 863 1057 798Q1057 733 991 733H912V-245H1013Q1078 -245 1078 -310Q1078 -375 1013 -375H688Q622 -375 622 -310Q622 -245 688 -245H781V75Q675
-34 532 -34Q455 -34 386 1T266 96T184 239T154 415Q154 506 183 587T264 729T384 827T532 863ZM704 644Q630 733 532 733Q480 733 435 707T357 638T304 537T285 415Q285 350 304 293T356 192T434 123T532 97Q584 97 629 122T708 191T761 292T781 415Q781 549 704
644Z" />
<glyph unicode="r" glyph-name="r" horiz-adv-x="1233" d="M143 733Q77 733 77 798Q77 863 143 863H458Q524 863 524 798V643Q561 692 609 732T708 802T807 847T893 863Q964 863 1015 843T1100 789T1149 714T1165 629Q1165 579 1150 541T1108 476T1048 437T978
423Q951 423 926 432T882 459T850 501T838 558Q838 601 869 627T945 654Q979 654 1001 643T1031 603Q1034 616 1034 627Q1034 680 998 706T893 733Q862 733 823 717T743 671T663 602T593 518T543 423T524 325V97H780Q846 97 846 31Q846 -34 780 -34H132Q67 -34
67 31Q67 97 132 97H392V733H143Z" />
<glyph unicode="s" glyph-name="s" horiz-adv-x="1233" d="M881 800Q882 833 898 848T949 863Q980 863 995 847T1011 801V796L1005 584Q1003 551 987 536T938 521Q918 521 905 530T882 555Q849 609 819 643T757 698T687 725T601 733Q550 733 503 725T418 702T359
670T336 632Q336 594 363 573T436 540T540 522T660 509T782 491T890 458Q1030 393 1030 235Q1030 174 1002 125T924 40T803 -15T649 -34Q552 -34 468 -2T333 97V31Q333 -34 267 -34Q202 -34 202 31V325Q202 352 223 372T274 393Q306 393 326 353Q354 294 383 247T448
167T533 115T649 97Q702 97 748 106T827 133T880 176T899 235Q899 284 869 312T791 355T680 378T553 392T426 412T315 449T236 518T206 632Q206 683 235 725T318 798T443 846T601 863Q689 863 756 839T880 767L881 800Z" />
<glyph unicode="t" glyph-name="t" horiz-adv-x="1233" d="M255 733Q190 733 190 798Q190 863 255 863H519V1145Q519 1211 585 1211Q650 1211 650 1145V863H978Q1043 863 1043 798Q1043 733 978 733H650V249Q650 180 673 138T741 95Q778 95 808 111T860 155T894
221T909 306Q912 367 971 367Q1039 367 1039 303Q1039 229 1016 167T952 61T857 -9T741 -34Q691 -34 651 -14T581 44T535 133T519 249V733H255Z" />
<glyph unicode="u" glyph-name="u" horiz-adv-x="1233" d="M145 733Q80 733 80 798Q80 863 145 863H276Q341 863 341 798L327 269Q329 183 370 140T490 97Q550 97 628 149T807 310L797 733H638Q572 733 572 798Q572 863 638 863H861Q926 863 926 798L942 97H1088Q1153
97 1153 31Q1153 -34 1088 -34L878 -33Q814 -33 813 30L811 129Q718 43 638 5T490 -34Q425 -34 371 -13T279 47T220 142T197 268L209 733H145Z" />
<glyph unicode="v" glyph-name="v" horiz-adv-x="1233" d="M169 733Q104 733 104 798Q104 863 169 863H492Q557 863 557 798Q557 733 492 733H409L617 209L824 733H741Q676 733 676 798Q676 863 741 863H1065Q1129 863 1129 798Q1129 733 1065 733H964L677 7Q660
-35 623 -35Q601 -36 583 -25T556 7L269 733H169Z" />
<glyph unicode="w" glyph-name="w" horiz-adv-x="1233" d="M23 733Q-42 733 -42 798Q-42 863 23 863H312Q378 863 378 798Q378 733 312 733H276L384 300L493 733Q430 734 430 798Q430 863 496 863H737Q802 863 802 798Q802 735 740 733L848 300L957 733H921Q855
733 855 798Q855 863 921 863H1209Q1275 863 1275 798Q1275 733 1209 733H1091L912 16Q906 -7 888 -21T840 -35Q797 -35 785 15L616 688L448 15Q436 -35 392 -35Q363 -35 345 -22T321 16L142 733H23Z" />
<glyph unicode="x" glyph-name="x" horiz-adv-x="1233" d="M105 -34Q40 -34 40 31Q40 97 105 97H299L533 397L272 733H152Q87 733 87 798Q87 863 152 863H525Q590 863 590 798Q590 733 525 733H438L615 503L794 733H707Q641 733 641 798Q641 863 707 863H1079Q1144
863 1144 798Q1144 733 1079 733H959L699 397L932 97H1127Q1192 97 1192 31Q1192 -34 1127 -34H745Q680 -34 680 31Q680 97 745 97H767L615 291L465 97H486Q551 97 551 31Q551 -34 486 -34H105Z" />
<glyph unicode="y" glyph-name="y" horiz-adv-x="1233" d="M962 733Q932 643 899 554T834 375T772 197T717 18Q717 18 715 10Q686 -94 650 -167T568 -286T468 -353T346 -375Q296 -375 253 -358T177 -308T126 -232T107 -133Q107 -37 148 10T257 57Q276 57 295 50T329
28T353 -7T363 -56Q361 -99 331 -124T257 -150Q252 -150 248 -150T238 -149Q243 -197 273 -221T346 -245Q389 -245 423 -230T486 -181T539 -97T585 27L289 733H148Q83 733 83 798Q83 863 148 863H517Q582 863 582 798Q582 733 517 733H430L643 224Q664 288 685
349T729 471T775 597T824 733H737Q672 733 672 798Q672 863 737 863H1083Q1149 863 1149 798Q1149 733 1083 733H962Z" />
<glyph unicode="z" glyph-name="z" horiz-adv-x="1233" d="M322 488Q307 440 267 440Q232 440 213 458T193 501Q193 506 194 512T197 526L286 817Q299 863 348 863H950Q1016 863 1016 798Q1016 769 995 750L410 97H894L911 335Q914 395 972 395Q1006 395 1023
379T1040 333V325L1020 30Q1019 -34 954 -34L264 -33Q248 -33 236 -27T214 -11T201 10T196 30Q196 53 215 75L804 733H396L322 488Z" />
<glyph unicode="{" glyph-name="braceleft" horiz-adv-x="1233" d="M758 1459Q781 1479 802 1479Q813 1479 825 1473T847 1456T863 1433T870 1408Q870 1385 844 1362Q761 1291 696 1203T586 1019T516 824T492 632Q492 535 514 430T579 226T688 40T839 -107Q854
-118 861 -131T869 -158Q869 -172 863 -184T847 -207T826 -224T804 -230Q783 -230 763 -214Q668 -147 597 -59T472 141Q414 262 388 389T362 631Q362 743 389 856T468 1077T593 1282T758 1459Z" />
<glyph unicode="|" glyph-name="bar" horiz-adv-x="1233" d="M660 16Q660 -49 595 -49Q529 -49 529 16V1255Q529 1321 595 1321Q660 1321 660 1255V16Z" />
<glyph unicode="}" glyph-name="braceright" horiz-adv-x="1233" d="M388 1362Q363 1384 363 1409Q363 1421 369 1433T385 1455T406 1472T429 1479Q449 1479 474 1459Q567 1376 640 1277T765 1070T843 851T870 631Q870 517 843 390T760 141Q708 29 636 -59T469
-214Q447 -230 426 -230Q415 -230 404 -224T384 -207T370 -184T364 -158Q364 -145 371 -132T393 -107Q472 -50 534 24T642 197Q694 307 717 421T740 638Q740 731 715 829T644 1023T533 1205T388 1362Z" />
<glyph unicode="~" glyph-name="asciitilde" horiz-adv-x="1233" d="M837 562Q872 617 928 582Q982 547 947 492Q845 334 756 360T579 449Q532 481 487 496T396 441Q360 385 306 422Q251 455 286 512Q387 669 476 643T654 555Q699 522 745 507T837 562Z" />
</font>
</defs>
</svg>
